<?xml version="1.0" encoding="utf-8"?>
<!DOCTYPE svg PUBLIC "-//W3C//DTD SVG 20010904//EN" "http://www.w3.org/TR/2001/REC-SVG-20010904/DTD/svg10.dtd">
<svg version="1.0" xmlns="http://www.w3.org/2000/svg" width="190pt" height="94pt" viewBox="0 0 190 94" style="" preserveAspectRatio="xMidYMid meet">
<g fill="#000000FF" stroke="#000000FF">
<path d="M 2.000 47.000 L 2.000 92.000 27.500 92.000 L 53.000 92.000 53.000 47.000 L 53.000 2.000 27.500 2.000 L 2.000 2.000 2.000 47.000 M 34.000 74.955 L 48.500 88.924 26.250 88.962 L 4.000 89.000 4.000 67.894 L 4.000 46.788 11.750 53.886 C 16.013 57.790 26.025 67.271 34.000 74.955 M 50.234 65.250 C 50.502 76.388 50.447 85.803 50.111 86.174 C 49.775 86.544 39.825 77.451 28.000 65.966 L 6.500 45.085 28.122 45.043 L 49.745 45.000 50.234 65.250 M 25.626 23.540 C 37.107 33.186 46.650 41.511 46.833 42.040 C 47.040 42.634 38.943 43.000 25.583 43.000 L 4.000 43.000 4.000 24.500 C 4.000 14.325 4.169 6.000 4.376 6.000 C 4.583 6.000 14.146 13.893 25.626 23.540 M 50.000 22.083 C 50.000 32.456 49.614 40.025 49.095 39.833 C 47.955 39.414 7.000 4.937 7.000 4.397 C 7.000 4.179 16.675 4.000 28.500 4.000 L 50.000 4.000 50.000 22.083 "/></g>
<g fill="#000000FF" stroke="#000000FF">
<path d="M 61.667 47.667 C 60.573 48.760 60.888 67.000 62.000 67.000 C 62.550 67.000 63.000 65.425 63.000 63.500 L 63.000 60.000 68.815 60.000 C 74.523 60.000 74.665 60.068 76.565 63.750 C 78.468 67.438 78.991 66.667 77.582 62.250 C 77.144 60.874 77.280 60.000 77.933 60.000 C 78.580 60.000 79.000 57.440 79.000 53.500 L 79.000 47.000 70.667 47.000 C 66.083 47.000 62.033 47.300 61.667 47.667 M 78.000 53.500 L 78.000 58.000 70.500 58.000 L 63.000 58.000 63.000 53.500 L 63.000 49.000 70.500 49.000 L 78.000 49.000 78.000 53.500 "/></g>
<g fill="#000000FF" stroke="#000000FF">
<path d="M 92.000 75.000 C 92.000 77.970 91.944 78.000 86.500 78.000 L 81.000 78.000 81.000 85.048 L 81.000 92.095 87.250 91.798 L 93.500 91.500 93.786 81.750 C 93.970 75.505 93.700 72.000 93.036 72.000 C 92.466 72.000 92.000 73.350 92.000 75.000 M 92.000 85.000 L 92.000 91.000 87.500 91.000 L 83.000 91.000 83.000 85.000 L 83.000 79.000 87.500 79.000 L 92.000 79.000 92.000 85.000 "/></g>
<g fill="#000000FF" stroke="#000000FF">
<path d="M 161.000 85.000 L 161.000 92.000 167.000 92.000 L 173.000 92.000 173.000 85.000 L 173.000 78.000 167.000 78.000 L 161.000 78.000 161.000 85.000 M 172.000 85.000 L 172.000 91.000 167.500 91.000 L 163.000 91.000 163.000 85.000 L 163.000 79.000 167.500 79.000 L 172.000 79.000 172.000 85.000 "/></g>
<g fill="#000000FF" stroke="#000000FF">
<path d="M 127.000 78.000 C 125.935 78.688 127.169 78.974 131.250 78.985 C 136.277 78.998 137.000 79.245 137.000 80.948 C 137.000 82.592 136.183 82.943 131.750 83.198 L 126.500 83.500 126.193 87.750 L 125.885 92.000 132.443 92.000 L 139.000 92.000 139.000 85.107 C 139.000 79.744 138.649 78.079 137.418 77.607 C 134.993 76.676 128.680 76.914 127.000 78.000 M 137.000 88.000 C 137.000 90.889 136.833 91.000 132.500 91.000 C 128.167 91.000 128.000 90.889 128.000 88.000 C 128.000 85.111 128.167 85.000 132.500 85.000 C 136.833 85.000 137.000 85.111 137.000 88.000 "/></g>
<g fill="#000000FF" stroke="#000000FF">
<path d="M 114.000 53.000 C 114.000 53.550 116.475 54.000 119.500 54.000 C 124.333 54.000 125.000 54.242 125.000 56.000 C 125.000 57.758 124.333 58.000 119.500 58.000 L 114.000 58.000 114.000 62.500 L 114.000 67.000 120.000 67.000 L 126.000 67.000 126.000 59.500 L 126.000 52.000 120.000 52.000 C 116.667 52.000 114.000 52.444 114.000 53.000 M 125.000 62.500 C 125.000 64.833 124.667 65.000 120.000 65.000 C 115.333 65.000 115.000 64.833 115.000 62.500 C 115.000 60.167 115.333 60.000 120.000 60.000 C 124.667 60.000 125.000 60.167 125.000 62.500 "/></g>
<g fill="#000000FF" stroke="#000000FF">
<path d="M 61.667 72.667 C 61.300 73.033 61.000 77.533 61.000 82.667 L 61.000 92.000 70.250 91.796 L 79.500 91.593 71.250 91.256 L 63.000 90.919 63.000 86.960 L 63.000 83.000 70.750 82.820 L 78.500 82.640 71.000 82.070 L 63.500 81.500 63.190 77.750 L 62.879 74.000 70.940 74.000 C 75.647 74.000 79.000 73.584 79.000 73.000 C 79.000 71.890 62.756 71.578 61.667 72.667 "/></g>
<g fill="#000000FF" stroke="#000000FF">
<path d="M 99.000 52.945 C 99.000 53.465 101.045 54.028 103.545 54.195 L 108.090 54.500 103.003 60.500 L 97.915 66.500 104.458 66.796 C 108.532 66.980 111.000 66.697 111.000 66.046 C 111.000 65.471 108.975 65.000 106.500 65.000 C 104.025 65.000 102.000 64.735 102.000 64.411 C 102.000 64.088 104.025 61.508 106.500 58.679 C 108.975 55.849 111.000 53.189 111.000 52.767 C 111.000 52.345 108.300 52.000 105.000 52.000 C 101.700 52.000 99.000 52.425 99.000 52.945 "/></g>
<g fill="#000000FF" stroke="#000000FF">
<path d="M 129.000 59.500 C 129.000 63.833 129.422 67.000 130.000 67.000 C 130.564 67.000 131.000 64.167 131.000 60.500 L 131.000 54.000 135.500 54.000 L 140.000 54.000 140.157 60.750 L 140.315 67.500 140.973 60.500 C 141.335 56.650 141.463 53.163 141.257 52.750 C 141.051 52.338 138.209 52.000 134.941 52.000 L 129.000 52.000 129.000 59.500 "/></g>
<g fill="#000000FF" stroke="#000000FF">
<path d="M 96.000 85.048 L 96.000 92.095 102.250 91.798 L 108.500 91.500 108.796 84.750 C 108.980 80.532 108.699 78.000 108.046 78.000 C 107.425 78.000 107.000 80.644 107.000 84.500 L 107.000 91.000 102.500 91.000 L 98.000 91.000 98.000 84.500 C 98.000 80.833 97.564 78.000 97.000 78.000 C 96.428 78.000 96.000 81.016 96.000 85.048 "/></g>
<g fill="#000000FF" stroke="#000000FF">
<path d="M 177.250 77.639 C 175.720 78.285 175.481 92.000 177.000 92.000 C 177.564 92.000 178.000 89.167 178.000 85.500 L 178.000 79.000 182.500 79.000 L 187.000 79.000 187.221 85.500 C 187.433 91.746 187.442 91.717 187.471 84.750 L 187.500 77.500 183.000 77.306 C 180.525 77.199 177.938 77.349 177.250 77.639 "/></g>
<g fill="#A5A5A51F" stroke="#A5A5A51F">
<path d="M 40.953 83.229 L 45.375 87.957 24.937 88.251 L 4.500 88.544 25.988 88.772 L 47.476 89.000 42.003 83.750 C 36.860 78.816 36.796 78.784 40.953 83.229 "/></g>
<g fill="#000000FF" stroke="#000000FF">
<path d="M 111.000 85.000 L 111.000 92.000 117.750 91.811 L 124.500 91.622 118.750 91.261 L 113.000 90.900 113.000 85.000 L 113.000 79.100 118.750 78.739 L 124.500 78.378 117.750 78.189 L 111.000 78.000 111.000 85.000 "/></g>
<g fill="#000000FF" stroke="#000000FF">
<path d="M 145.000 75.930 C 145.000 77.137 144.157 78.023 142.750 78.294 L 140.500 78.728 142.750 78.864 C 144.839 78.990 145.000 79.466 145.000 85.500 L 145.000 92.000 148.250 91.864 C 150.600 91.765 150.877 91.608 149.250 91.294 C 147.222 90.904 147.000 90.283 147.000 85.000 C 147.000 79.717 147.222 79.096 149.250 78.706 L 151.500 78.272 149.250 78.136 C 147.712 78.043 147.000 77.367 147.000 76.000 C 147.000 74.900 146.550 74.000 146.000 74.000 C 145.450 74.000 145.000 74.869 145.000 75.930 "/></g>
<g fill="#454545BC" stroke="#454545BC">
<path d="M 4.228 68.750 L 4.456 89.500 4.749 69.114 L 5.042 48.728 7.271 50.614 L 9.500 52.500 7.595 50.250 C 6.547 49.013 5.310 48.000 4.845 48.000 C 4.380 48.000 4.103 57.338 4.228 68.750 "/></g>
<g fill="#454545BC" stroke="#454545BC">
<path d="M 7.999 4.750 C 7.998 5.163 17.561 5.257 29.249 4.961 L 50.500 4.422 29.250 4.211 C 17.563 4.095 7.999 4.338 7.999 4.750 "/></g>
<g fill="#3F3F3FFF" stroke="#3F3F3FFF">
<path d="M 25.500 42.031 L 4.500 42.561 25.833 42.781 C 37.567 42.901 47.017 42.663 46.833 42.250 C 46.650 41.838 37.050 41.739 25.500 42.031 "/></g>
<g fill="#A5A5A51F" stroke="#A5A5A51F">
<path d="M 49.222 21.872 C 49.013 37.282 48.897 38.167 47.250 36.927 C 45.594 35.680 45.592 35.710 47.213 37.482 C 49.803 40.313 50.094 38.419 49.749 20.958 L 49.444 5.500 49.222 21.872 "/></g>
<g fill="#000000FF" stroke="#000000FF">
<path d="M 82.038 52.356 C 82.017 52.827 83.315 54.872 84.921 56.901 C 86.528 58.929 88.031 62.144 88.261 64.045 L 88.680 67.500 88.840 64.144 C 88.939 62.073 90.195 59.278 92.121 56.848 C 93.837 54.681 95.007 52.674 94.722 52.388 C 94.436 52.102 92.950 53.510 91.420 55.516 L 88.637 59.164 85.356 55.332 C 83.552 53.224 82.058 51.885 82.038 52.356 "/></g>
<g fill="#000000FF" stroke="#000000FF">
<path d="M 155.000 85.000 C 155.000 89.000 155.429 92.000 156.000 92.000 C 156.571 92.000 157.000 89.000 157.000 85.000 C 157.000 81.000 156.571 78.000 156.000 78.000 C 155.429 78.000 155.000 81.000 155.000 85.000 "/></g>
<g fill="#A5A5A51F" stroke="#A5A5A51F">
<path d="M 92.250 71.631 C 93.734 72.068 94.035 73.578 94.227 81.573 L 94.455 91.000 94.477 81.264 C 94.498 72.254 94.351 71.512 92.500 71.321 C 90.946 71.161 90.890 71.230 92.250 71.631 "/></g>
<g fill="#A5A5A51F" stroke="#A5A5A51F">
<path d="M 60.657 71.676 C 60.296 72.038 60.083 76.421 60.184 81.417 L 60.367 90.500 60.841 80.759 C 61.101 75.402 61.019 71.315 60.657 71.676 "/></g>
<g fill="#A5A5A51F" stroke="#A5A5A51F">
<path d="M 109.000 84.333 C 109.000 94.311 110.139 94.812 110.339 84.922 C 110.428 80.565 110.163 76.999 109.750 77.000 C 109.338 77.000 109.000 80.300 109.000 84.333 "/></g>
<g fill="#3F3F3FFF" stroke="#3F3F3FFF">
<path d="M 128.424 60.000 C 128.478 65.350 128.858 67.471 129.750 67.400 C 130.438 67.345 130.570 67.233 130.044 67.150 C 129.518 67.068 128.921 63.738 128.718 59.750 L 128.349 52.500 128.424 60.000 "/></g>
<g fill="#A5A5A51F" stroke="#A5A5A51F">
<path d="M 40.500 76.500 L 47.000 83.000 40.500 76.500 L 34.000 70.000 40.500 76.500 "/></g>
<g fill="#A5A5A51F" stroke="#A5A5A51F">
<path d="M 21.000 64.000 L 27.000 70.000 21.000 64.000 L 15.000 58.000 21.000 64.000 "/></g>
<g fill="#A5A5A51F" stroke="#A5A5A51F">
<path d="M 19.000 56.000 L 25.000 62.000 19.000 56.000 L 13.000 50.000 19.000 56.000 "/></g>
<g fill="#454545BC" stroke="#454545BC">
<path d="M 35.000 72.000 L 39.000 76.000 35.000 72.000 L 31.000 68.000 35.000 72.000 "/></g>
<g fill="#454545BC" stroke="#454545BC">
<path d="M 27.000 69.000 L 31.000 73.000 27.000 69.000 L 23.000 65.000 27.000 69.000 "/></g>
<g fill="#454545BC" stroke="#454545BC">
<path d="M 13.000 51.000 L 17.000 55.000 13.000 51.000 L 9.000 47.000 13.000 51.000 "/></g>
<g fill="#5656567A" stroke="#5656567A">
<path d="M 34.000 76.000 L 37.000 79.000 34.000 76.000 L 31.000 73.000 34.000 76.000 "/></g>
<g fill="#5656567A" stroke="#5656567A">
<path d="M 28.000 65.000 L 31.000 68.000 28.000 65.000 L 25.000 62.000 28.000 65.000 "/></g>
<g fill="#5656567A" stroke="#5656567A">
<path d="M 12.000 55.000 L 15.000 58.000 12.000 55.000 L 9.000 52.000 12.000 55.000 "/></g>
<g fill="#A5A5A51F" stroke="#A5A5A51F">
<path d="M 105.500 61.410 L 103.500 63.567 105.500 61.410 L 107.500 59.253 105.500 61.410 "/></g>
<g fill="#A5A5A51F" stroke="#A5A5A51F">
<path d="M 102.500 59.410 L 100.500 61.567 102.500 59.410 L 104.500 57.253 102.500 59.410 "/></g>
<g fill="#000000FF" stroke="#000000FF">
<path d="M 155.000 75.000 C 155.000 75.550 155.450 76.000 156.000 76.000 C 156.550 76.000 157.000 75.550 157.000 75.000 C 157.000 74.450 156.550 74.000 156.000 74.000 C 155.450 74.000 155.000 74.450 155.000 75.000 "/></g>
<g fill="#A5A5A51F" stroke="#A5A5A51F">
<path d="M 124.030 91.250 C 124.014 92.213 124.472 93.000 125.050 93.000 C 125.771 93.000 125.781 92.453 125.080 91.250 C 124.109 89.583 124.059 89.583 124.030 91.250 "/></g>
<g fill="#A5A5A51F" stroke="#A5A5A51F">
<path d="M 21.000 21.000 L 23.000 23.000 21.000 21.000 L 19.000 19.000 21.000 21.000 "/></g>
<g fill="#A5A5A51F" stroke="#A5A5A51F">
<path d="M 16.000 11.000 L 18.000 13.000 16.000 11.000 L 14.000 9.000 16.000 11.000 "/></g>
<g fill="#42424242" stroke="#42424242">
<path d="M 156.775 75.218 C 156.397 76.163 156.456 77.164 156.906 77.442 C 157.356 77.720 157.665 76.947 157.593 75.724 C 157.484 73.878 157.345 73.792 156.775 75.218 "/></g>
<g fill="#42424242" stroke="#42424242">
<path d="M 97.660 64.750 C 97.232 65.438 97.232 66.563 97.660 67.250 C 98.156 68.047 98.437 67.595 98.437 66.000 C 98.437 64.405 98.156 63.953 97.660 64.750 "/></g>
<g fill="#A5A5A51F" stroke="#A5A5A51F">
<path d="M 85.500 59.500 L 87.000 61.000 85.500 59.500 L 84.000 58.000 85.500 59.500 "/></g>
<g fill="#A5A5A51F" stroke="#A5A5A51F">
<path d="M 110.378 55.378 L 109.500 56.256 110.378 55.378 L 111.256 54.500 110.378 55.378 "/></g>
<g fill="#A5A5A51F" stroke="#A5A5A51F">
<path d="M 39.500 36.500 L 41.000 38.000 39.500 36.500 L 38.000 35.000 39.500 36.500 "/></g>
<g fill="#A5A5A51F" stroke="#A5A5A51F">
<path d="M 41.500 32.500 L 43.000 34.000 41.500 32.500 L 40.000 31.000 41.500 32.500 "/></g>
<g fill="#A5A5A51F" stroke="#A5A5A51F">
<path d="M 33.500 31.500 L 35.000 33.000 33.500 31.500 L 32.000 30.000 33.500 31.500 "/></g>
<g fill="#A5A5A51F" stroke="#A5A5A51F">
<path d="M 35.500 27.500 L 37.000 29.000 35.500 27.500 L 34.000 26.000 35.500 27.500 "/></g>
<g fill="#A5A5A51F" stroke="#A5A5A51F">
<path d="M 27.500 26.500 L 29.000 28.000 27.500 26.500 L 26.000 25.000 27.500 26.500 "/></g>
<g fill="#A5A5A51F" stroke="#A5A5A51F">
<path d="M 28.500 21.500 L 30.000 23.000 28.500 21.500 L 27.000 20.000 28.500 21.500 "/></g>
<g fill="#A5A5A51F" stroke="#A5A5A51F">
<path d="M 22.500 16.500 L 24.000 18.000 22.500 16.500 L 21.000 15.000 22.500 16.500 "/></g>
<g fill="#A5A5A51F" stroke="#A5A5A51F">
<path d="M 14.500 15.500 L 16.000 17.000 14.500 15.500 L 13.000 14.000 14.500 15.500 "/></g>
<g fill="#A5A5A51F" stroke="#A5A5A51F">
<path d="M 8.500 10.500 L 10.000 12.000 8.500 10.500 L 7.000 9.000 8.500 10.500 "/></g>
<g fill="#A5A5A51F" stroke="#A5A5A51F">
<path d="M 10.500 6.500 L 12.000 8.000 10.500 6.500 L 9.000 5.000 10.500 6.500 "/></g>
<g fill="#5656567A" stroke="#5656567A">
<path d="M 105.695 55.352 C 105.275 56.448 105.413 56.863 106.064 56.460 C 106.637 56.106 106.939 55.318 106.736 54.709 C 106.533 54.100 106.065 54.389 105.695 55.352 "/></g>
</svg>
