<?xml version="1.0" encoding="utf-8"?>
<!DOCTYPE svg PUBLIC "-//W3C//DTD SVG 20010904//EN" "http://www.w3.org/TR/2001/REC-SVG-20010904/DTD/svg10.dtd">
<svg version="1.0" xmlns="http://www.w3.org/2000/svg" width="55pt" height="94pt" viewBox="0 0 55 94" style="" preserveAspectRatio="xMidYMid meet">
<g fill="#404040B8" stroke="#404040B8">
<path d="M 4.000 69.000 L 4.000 90.000 26.250 89.771 L 48.500 89.541 26.750 89.251 L 5.000 88.961 5.000 68.768 L 5.000 48.575 10.250 53.538 L 15.500 58.500 10.538 53.250 C 7.808 50.363 5.221 48.000 4.788 48.000 C 4.354 48.000 4.000 57.450 4.000 69.000 "/></g>
<g fill="#404040B8" stroke="#404040B8">
<path d="M 8.000 4.941 C 8.000 5.459 8.520 6.203 9.155 6.595 C 9.882 7.045 10.037 6.869 9.573 6.118 C 9.012 5.211 13.826 4.954 29.827 5.039 C 41.371 5.100 50.558 4.891 50.241 4.575 C 49.242 3.575 8.000 3.933 8.000 4.941 "/></g>
<g fill="#404040B8" stroke="#404040B8">
<path d="M 4.206 24.750 C 4.093 34.788 4.338 43.001 4.750 43.002 C 5.163 43.002 5.255 34.790 4.956 24.752 L 4.411 6.500 4.206 24.750 "/></g>
<g fill="#AAAAAA09" stroke="#AAAAAA09">
<path d="M 26.000 63.000 L 36.000 73.000 26.000 63.000 L 16.000 53.000 26.000 63.000 "/></g>
<g fill="#AAAAAA09" stroke="#AAAAAA09">
<path d="M 25.000 68.000 L 34.000 77.000 25.000 68.000 L 16.000 59.000 25.000 68.000 "/></g>
<g fill="#404040B8" stroke="#404040B8">
<path d="M 42.000 79.000 L 48.000 85.000 42.000 79.000 L 36.000 73.000 42.000 79.000 "/></g>
<g fill="#404040B8" stroke="#404040B8">
<path d="M 31.500 73.500 L 37.000 79.000 31.500 73.500 L 26.000 68.000 31.500 73.500 "/></g>
<g fill="#404040B8" stroke="#404040B8">
<path d="M 19.500 57.500 L 25.000 63.000 19.500 57.500 L 14.000 52.000 19.500 57.500 "/></g>
<g fill="#AAAAAA09" stroke="#AAAAAA09">
<path d="M 44.500 80.500 L 50.000 86.000 44.500 80.500 L 39.000 75.000 44.500 80.500 "/></g>
<g fill="#AAAAAA09" stroke="#AAAAAA09">
<path d="M 42.500 84.500 L 47.000 89.000 42.500 84.500 L 38.000 80.000 42.500 84.500 "/></g>
<g fill="#AAAAAA09" stroke="#AAAAAA09">
<path d="M 8.500 52.500 L 12.000 56.000 8.500 52.500 L 5.000 49.000 8.500 52.500 "/></g>
<g fill="#404040B8" stroke="#404040B8">
<path d="M 44.000 42.086 C 41.508 42.798 41.509 42.801 44.333 42.900 C 45.892 42.955 47.017 42.633 46.833 42.185 C 46.650 41.737 45.375 41.692 44.000 42.086 "/></g>
<g fill="#AAAAAA09" stroke="#AAAAAA09">
<path d="M 27.000 26.000 L 30.000 29.000 27.000 26.000 L 24.000 23.000 27.000 26.000 "/></g>
<g fill="#AAAAAA09" stroke="#AAAAAA09">
<path d="M 11.000 49.000 L 13.500 51.500 11.000 49.000 L 8.500 46.500 11.000 49.000 "/></g>
<g fill="#AAAAAA09" stroke="#AAAAAA09">
<path d="M 39.000 36.000 L 41.500 38.500 39.000 36.000 L 36.500 33.500 39.000 36.000 "/></g>
<g fill="#AAAAAA09" stroke="#AAAAAA09">
<path d="M 41.000 32.000 L 43.500 34.500 41.000 32.000 L 38.500 29.500 41.000 32.000 "/></g>
<g fill="#AAAAAA09" stroke="#AAAAAA09">
<path d="M 33.000 31.000 L 35.500 33.500 33.000 31.000 L 30.500 28.500 33.000 31.000 "/></g>
<g fill="#AAAAAA09" stroke="#AAAAAA09">
<path d="M 35.000 27.000 L 37.500 29.500 35.000 27.000 L 32.500 24.500 35.000 27.000 "/></g>
<g fill="#AAAAAA09" stroke="#AAAAAA09">
<path d="M 29.000 22.000 L 31.500 24.500 29.000 22.000 L 26.500 19.500 29.000 22.000 "/></g>
<g fill="#AAAAAA09" stroke="#AAAAAA09">
<path d="M 20.000 20.000 L 22.500 22.500 20.000 20.000 L 17.500 17.500 20.000 20.000 "/></g>
<g fill="#AAAAAA09" stroke="#AAAAAA09">
<path d="M 23.000 17.000 L 25.500 19.500 23.000 17.000 L 20.500 14.500 23.000 17.000 "/></g>
<g fill="#AAAAAA09" stroke="#AAAAAA09">
<path d="M 14.000 15.000 L 16.500 17.500 14.000 15.000 L 11.500 12.500 14.000 15.000 "/></g>
<g fill="#AAAAAA09" stroke="#AAAAAA09">
<path d="M 16.000 11.000 L 18.500 13.500 16.000 11.000 L 13.500 8.500 16.000 11.000 "/></g>
<g fill="#404040B8" stroke="#404040B8">
<path d="M 46.000 37.000 L 48.000 39.000 46.000 37.000 L 44.000 35.000 46.000 37.000 "/></g>
<g fill="#404040B8" stroke="#404040B8">
<path d="M 10.000 11.000 L 12.000 13.000 10.000 11.000 L 8.000 9.000 10.000 11.000 "/></g>
<g fill="#AAAAAA09" stroke="#AAAAAA09">
<path d="M 48.000 38.000 L 50.000 40.000 48.000 38.000 L 46.000 36.000 48.000 38.000 "/></g>
<g fill="#AAAAAA09" stroke="#AAAAAA09">
<path d="M 8.000 10.000 L 10.000 12.000 8.000 10.000 L 6.000 8.000 8.000 10.000 "/></g>
<g fill="#AAAAAA09" stroke="#AAAAAA09">
<path d="M 11.000 7.000 L 13.000 9.000 11.000 7.000 L 9.000 5.000 11.000 7.000 "/></g>
<g fill="#404040B8" stroke="#404040B8">
<path d="M 41.500 37.500 L 43.000 39.000 41.500 37.500 L 40.000 36.000 41.500 37.500 "/></g>
<g fill="#404040B8" stroke="#404040B8">
<path d="M 35.500 32.500 L 37.000 34.000 35.500 32.500 L 34.000 31.000 35.500 32.500 "/></g>
<g fill="#404040B8" stroke="#404040B8">
<path d="M 39.500 31.500 L 41.000 33.000 39.500 31.500 L 38.000 30.000 39.500 31.500 "/></g>
<g fill="#404040B8" stroke="#404040B8">
<path d="M 33.500 26.500 L 35.000 28.000 33.500 26.500 L 32.000 25.000 33.500 26.500 "/></g>
<g fill="#404040B8" stroke="#404040B8">
<path d="M 27.500 21.500 L 29.000 23.000 27.500 21.500 L 26.000 20.000 27.500 21.500 "/></g>
<g fill="#404040B8" stroke="#404040B8">
<path d="M 22.500 21.500 L 24.000 23.000 22.500 21.500 L 21.000 20.000 22.500 21.500 "/></g>
<g fill="#404040B8" stroke="#404040B8">
<path d="M 16.500 16.500 L 18.000 18.000 16.500 16.500 L 15.000 15.000 16.500 16.500 "/></g>
<g fill="#404040B8" stroke="#404040B8">
<path d="M 20.500 15.500 L 22.000 17.000 20.500 15.500 L 19.000 14.000 20.500 15.500 "/></g>
<g fill="#404040B8" stroke="#404040B8">
<path d="M 14.500 10.500 L 16.000 12.000 14.500 10.500 L 13.000 9.000 14.500 10.500 "/></g>
<g fill="#AAAAAA09" stroke="#AAAAAA09">
<path d="M 44.500 40.500 L 46.000 42.000 44.500 40.500 L 43.000 39.000 44.500 40.500 "/></g>
</svg>
