<svg width="24" height="24" xmlns="http://www.w3.org/2000/svg" p-id="1515" version="1.1" class="icon" t="1725355584363">

 <g>
  <title>Layer 1</title>
  <path id="svg_1" p-id="1516" fill="#ffffff" d="m702.72,849.92c-76.8,30.72 -158.72,35.84 -240.64,30.72c-35.84,-5.12 -71.68,-10.24 -107.52,-20.48c-5.12,0 -10.24,0 -15.36,5.12c-46.08,20.48 -92.16,46.08 -133.12,66.56c-15.36,10.24 -30.72,10.24 -46.08,0s-15.36,-25.6 -15.36,-46.08c10.24,-35.84 10.24,-71.68 15.36,-107.52c0,-5.12 -5.12,-10.24 -5.12,-15.36c-51.2,-51.2 -92.16,-102.4 -122.88,-168.96c-51.2,-122.88 -40.96,-245.76 30.72,-358.4c71.68,-122.88 184.32,-189.44 317.44,-220.16s261.12,-15.36 384,46.08c112.64,56.32 194.56,143.36 230.4,266.24c15.36,46.08 20.48,92.16 15.36,138.24c-25.6,-25.6 -56.32,-30.72 -87.04,-15.36c0,-30.72 0,-61.44 -10.24,-92.16c-20.48,-71.68 -61.44,-128 -112.64,-174.08c-87.04,-71.68 -194.56,-102.4 -307.2,-102.4c-117.76,10.24 -220.16,51.2 -302.08,133.12c-66.56,66.56 -102.4,148.48 -97.28,245.76c5.12,81.92 40.96,148.48 92.16,204.8l40.96,40.96c20.48,15.36 25.6,30.72 15.36,51.2c-5.12,20.48 -10.24,46.08 -15.36,66.56c0,5.12 -5.12,10.24 0,10.24c5.12,5.12 10.24,0 10.24,0c25.6,-15.36 56.32,-30.72 81.92,-51.2c15.36,-10.24 30.72,-10.24 51.2,-5.12c87.04,25.6 179.2,25.6 266.24,0c5.12,0 10.24,-5.12 10.24,5.12c10.24,30.72 25.6,51.2 56.32,66.56z"/>
  <path id="svg_2" p-id="1517" fill="#ffffff" d="m1214.72,747.52c0,35.84 -25.6,61.44 -56.32,66.56c-51.2,10.24 -92.16,30.72 -128,66.56c-10.24,10.24 -15.36,10.24 -25.6,5.12c-5.12,-5.12 -5.12,-15.36 0,-25.6c35.84,-35.84 56.32,-81.92 66.56,-128c5.12,-35.84 40.96,-56.32 76.8,-56.32c40.96,5.12 66.56,35.84 66.56,71.68z"/>
  <path id="svg_3" p-id="1518" fill="#ffffff" d="m953.6,1024c-35.84,0 -66.56,-25.6 -71.68,-56.32c-5.12,-51.2 -30.72,-92.16 -66.56,-122.88c-5.12,-5.12 -10.24,-10.24 -5.12,-20.48c5.12,-15.36 15.36,-15.36 25.6,-10.24c10.24,5.12 15.36,15.36 20.48,20.48c30.72,25.6 66.56,40.96 102.4,46.08c35.84,5.12 61.44,40.96 56.32,76.8c5.12,35.84 -25.6,66.56 -61.44,66.56z"/>
  <path id="svg_4" p-id="1519" fill="#ffffff" d="m682.24,757.76c0,-35.84 20.48,-61.44 56.32,-71.68c51.2,-10.24 92.16,-30.72 128,-66.56c10.24,-10.24 20.48,-10.24 25.6,0c5.12,5.12 5.12,15.36 -5.12,25.6c-30.72,30.72 -51.2,66.56 -61.44,112.64c0,5.12 0,15.36 -5.12,20.48c-10.24,35.84 -40.96,56.32 -76.8,51.2c-35.84,-5.12 -61.44,-35.84 -61.44,-71.68z"/>
  <path id="svg_5" p-id="1520" fill="#ffffff" d="m1035.52,578.56c15.36,30.72 30.72,56.32 51.2,76.8c10.24,10.24 10.24,20.48 5.12,25.6c-5.12,10.24 -15.36,10.24 -25.6,0c-25.6,-30.72 -61.44,-51.2 -97.28,-61.44c-10.24,-5.12 -20.48,-5.12 -30.72,-5.12c-20.48,-5.12 -40.96,-15.36 -46.08,-40.96c-10.24,-25.6 -10.24,-51.2 10.24,-71.68c20.48,-25.6 46.08,-30.72 71.68,-25.6c25.6,10.24 46.08,25.6 51.2,56.32c0,15.36 5.12,30.72 10.24,46.08z"/>
 </g>
</svg>
